<?xml version="1.0" standalone="no"?>
<!DOCTYPE svg PUBLIC "-//W3C//DTD SVG 20010904//EN"
 "http://www.w3.org/TR/2001/REC-SVG-20010904/DTD/svg10.dtd">
<svg version="1.0" xmlns="http://www.w3.org/2000/svg"
 width="2500.000000pt" height="2500.000000pt" viewBox="0 0 2500.000000 2500.000000"
 preserveAspectRatio="xMidYMid meet">
<metadata>
Created by potrace 1.14, written by Peter Selinger 2001-2017
</metadata>
<g transform="translate(0.000000,2500.000000) scale(0.100000,-0.100000)"
fill="#000000" stroke="none">
<path d="M17465 20441 c-99 -59 -216 -127 -260 -151 -44 -23 -84 -46 -90 -50
-5 -4 -55 -31 -110 -60 -55 -29 -131 -70 -170 -90 -413 -221 -999 -484 -1430
-642 -286 -105 -779 -255 -960 -292 -16 -4 -39 -8 -50 -11 -190 -39 -279 -56
-375 -69 -171 -25 -170 -24 -245 -31 -38 -3 -95 -8 -125 -11 -63 -6 -403 -6
-530 0 -167 8 -371 21 -465 31 -88 8 -208 19 -335 29 -41 4 -82 9 -90 11 -8 2
-46 6 -85 10 -38 3 -88 8 -110 10 -151 17 -277 29 -415 40 -47 3 -98 8 -115
10 -80 11 -355 20 -580 20 -283 -1 -428 -8 -637 -31 -29 -3 -73 -7 -98 -10
-25 -2 -79 -9 -120 -15 -41 -6 -91 -13 -110 -15 -35 -5 -241 -39 -293 -49 -56
-11 -282 -56 -297 -60 -8 -2 -55 -13 -105 -24 -49 -11 -153 -36 -230 -56 -77
-20 -151 -38 -165 -41 -14 -2 -142 -38 -285 -80 -143 -41 -267 -77 -275 -79
-30 -7 -249 -78 -380 -122 -431 -147 -894 -380 -1275 -643 -109 -75 -313 -225
-325 -239 -3 -3 -41 -35 -85 -70 -44 -36 -87 -72 -96 -80 -9 -9 -49 -45 -90
-80 -181 -157 -464 -456 -723 -761 -228 -270 -543 -716 -952 -1348 -79 -123
-262 -401 -286 -435 -22 -31 -131 -182 -158 -218 -60 -80 -173 -209 -232 -264
-61 -59 -90 -82 -318 -249 -268 -196 -438 -322 -799 -591 -213 -159 -461 -344
-550 -410 -90 -66 -168 -125 -174 -130 -7 -6 -88 -67 -181 -135 -93 -69 -174
-129 -180 -135 -6 -5 -189 -143 -406 -305 -217 -162 -400 -299 -407 -305 -23
-19 -40 -31 -271 -204 -159 -119 -232 -179 -229 -190 2 -9 7 -15 13 -15 9 2
265 83 534 169 74 24 223 71 330 105 172 54 487 155 755 240 50 16 146 47 215
69 69 22 202 64 295 94 94 30 172 53 174 51 2 -2 -16 -23 -40 -47 -104 -103
-270 -285 -424 -462 -33 -38 -76 -87 -96 -110 -123 -139 -685 -832 -799 -984
-22 -30 -39 -51 -68 -86 -5 -6 -38 -49 -73 -95 -35 -47 -66 -87 -69 -90 -3 -3
-59 -77 -125 -165 -66 -88 -124 -164 -128 -170 -4 -5 -26 -35 -48 -65 -22 -30
-49 -65 -59 -77 -10 -12 -23 -31 -30 -42 -14 -27 -23 -26 -56 4 -52 48 -43 32
63 -112 29 -40 59 -81 67 -90 209 -260 251 -308 416 -473 331 -332 646 -544
952 -644 138 -45 222 -59 348 -60 150 0 227 12 361 59 79 28 93 34 210 89 l76
35 177 -90 c97 -49 241 -116 319 -148 136 -56 176 -72 187 -76 3 -1 12 -5 20
-8 136 -58 532 -162 725 -191 17 -2 63 -10 103 -16 40 -7 75 -10 77 -8 2 2 -6
15 -18 28 -24 27 -169 207 -202 251 -11 14 -61 80 -111 145 -142 187 -394 545
-394 561 0 3 -9 16 -20 31 l-21 25 122 79 c69 45 129 77 138 75 9 -3 97 -35
196 -72 287 -107 667 -245 672 -245 4 0 -1 68 -12 150 -6 48 -15 120 -20 165
-3 25 -7 64 -10 88 -9 75 -13 111 -20 172 -4 33 -8 71 -11 85 -2 14 -6 54 -10
90 -3 35 -8 69 -11 74 -9 14 130 -28 242 -73 59 -24 121 -48 340 -127 132 -47
252 -92 268 -99 25 -13 27 -12 27 8 0 20 -8 77 -25 187 -6 43 -34 241 -41 295
-3 22 -9 65 -14 95 -5 30 -12 80 -15 110 l-6 56 38 19 c21 10 40 19 43 20 3 1
58 28 124 60 73 36 122 67 127 80 5 11 42 151 84 310 41 160 79 304 84 320 6
17 19 66 30 110 11 44 27 107 36 140 8 33 45 173 82 310 36 138 86 324 110
415 25 91 46 172 48 180 2 8 15 60 30 115 14 55 28 107 30 115 4 18 91 344
111 420 8 30 17 64 19 75 3 11 16 61 30 110 13 50 66 248 117 442 l93 352 245
168 c135 92 310 212 390 266 80 54 224 152 320 218 96 66 231 158 300 205 69
47 217 148 330 225 113 77 255 173 315 215 61 41 169 114 240 163 72 50 200
137 285 195 85 58 211 144 280 191 69 47 132 90 140 95 8 6 70 49 138 95 68
47 125 85 128 85 3 0 10 5 17 11 14 12 146 103 429 295 l198 134 -19 -47 c-10
-27 -56 -140 -101 -253 -45 -113 -89 -223 -97 -245 -7 -22 -18 -49 -23 -60 -5
-11 -30 -72 -55 -135 -51 -126 -64 -156 -138 -310 -373 -778 -954 -1425 -1630
-1814 -134 -77 -276 -143 -442 -205 -155 -58 -169 -64 -205 -79 -14 -6 -101
-39 -195 -74 -198 -73 -181 -59 -366 -289 -171 -212 -260 -363 -333 -569 -21
-60 -66 -215 -77 -265 -4 -22 -11 -50 -13 -63 -3 -13 -7 -31 -10 -40 -12 -39
-72 -396 -80 -477 -4 -33 -11 -87 -16 -120 -9 -56 -12 -86 -25 -217 -3 -29 -7
-69 -10 -88 -4 -32 -18 -181 -29 -303 -4 -49 -4 -49 22 -43 337 72 582 88 833
52 102 -15 310 -77 442 -132 197 -82 428 -221 597 -357 238 -193 481 -485 649
-783 101 -178 225 -483 257 -629 1 -5 6 -28 12 -50 40 -150 56 -287 57 -460 0
-238 -29 -360 -118 -493 -53 -78 -248 -270 -452 -443 -22 -19 -53 -46 -70 -60
-16 -15 -66 -56 -110 -93 l-79 -66 -325 -2 -326 -3 -3 -260 -4 -260 -31 -27
-32 -26 -328 0 c-181 0 -331 -2 -333 -5 -5 -5 -11 -215 -13 -442 l-1 -71 -86
-64 -87 -64 -66 2 c-36 2 -77 4 -91 6 -151 21 -241 42 -400 96 -150 50 -304
116 -465 200 -135 69 -327 181 -358 208 -9 8 -20 12 -24 8 -7 -6 -5 -100 3
-140 2 -11 9 -48 15 -81 27 -156 115 -435 189 -600 10 -22 30 -68 44 -103 54
-127 146 -309 168 -329 50 -47 378 -232 628 -355 392 -192 789 -332 1116 -392
188 -35 283 -43 464 -41 187 3 228 8 359 41 166 43 372 140 686 322 164 96
455 274 615 377 166 107 786 509 880 570 156 101 357 231 500 323 52 33 100
66 107 71 7 6 15 11 18 11 3 0 50 29 105 65 55 36 104 65 109 65 5 0 11 4 13
8 9 21 964 597 1273 767 314 173 357 196 641 340 382 193 610 293 754 331 69
18 179 47 245 64 66 18 131 34 144 36 14 3 28 7 33 10 4 3 16 7 25 9 10 2 54
13 98 24 44 12 87 23 95 26 8 2 43 11 77 20 35 9 71 18 80 20 10 2 95 24 188
49 94 25 215 58 270 72 55 14 156 41 225 59 69 19 177 47 240 64 106 27 182
47 330 87 30 8 62 17 70 19 8 2 51 13 95 25 44 12 88 23 97 25 16 4 155 40
328 87 41 11 116 30 165 43 50 13 153 40 230 60 77 20 147 38 155 40 13 3 181
48 400 107 41 11 82 21 90 23 8 2 59 15 113 30 54 15 107 28 118 30 10 2 23 6
27 9 5 3 19 7 33 9 13 3 44 10 69 17 25 7 52 14 60 16 8 2 83 21 165 43 83 22
195 52 250 66 55 15 107 28 115 30 17 4 531 140 819 216 63 17 121 32 130 34
9 2 93 24 186 50 94 25 225 59 293 76 78 20 126 38 131 48 5 9 73 183 151 386
77 204 145 379 150 390 5 11 30 74 55 140 108 282 158 411 166 430 11 26 225
582 254 660 12 33 29 77 38 98 9 20 15 37 13 37 -3 0 -95 -24 -321 -85 -93
-25 -179 -47 -190 -50 -18 -4 -141 -36 -420 -110 -55 -14 -399 -105 -765 -200
-366 -96 -678 -179 -695 -184 -28 -9 -214 -58 -520 -137 -147 -38 -260 -68
-355 -94 -36 -10 -146 -39 -245 -65 -99 -26 -238 -62 -310 -82 -71 -19 -137
-36 -145 -38 -19 -4 -272 -71 -540 -142 -242 -65 -237 -64 -272 -70 l-28 -5 0
965 0 966 43 11 c23 6 56 15 72 20 27 8 289 77 325 85 8 2 134 36 280 75 146
38 274 72 285 74 11 2 61 15 110 29 108 30 396 106 445 118 19 4 85 21 145 37
61 17 173 47 250 67 77 20 190 50 250 66 130 34 440 116 648 170 181 47 609
161 732 194 50 13 133 35 185 49 52 14 158 41 235 61 77 21 176 46 220 57 44
11 87 22 95 25 8 3 20 7 25 8 8 2 122 32 305 80 8 3 85 23 170 45 85 23 166
43 180 46 14 2 36 9 50 14 14 5 97 28 185 50 372 96 415 109 415 122 0 10 59
168 80 213 5 11 35 88 66 170 31 83 62 164 69 180 7 17 34 86 60 155 46 121
70 185 160 415 23 61 62 160 85 220 23 61 57 148 75 195 117 299 208 539 216
564 8 26 6 28 -14 22 -67 -19 -801 -212 -1312 -346 -234 -61 -375 -99 -415
-110 -19 -6 -190 -51 -380 -101 -551 -144 -746 -195 -890 -234 -74 -20 -142
-38 -150 -40 -18 -4 -162 -42 -690 -181 -217 -58 -402 -107 -410 -108 -38 -9
-641 -168 -685 -181 -27 -8 -153 -41 -280 -74 -383 -100 -685 -179 -780 -205
-112 -31 -402 -107 -433 -114 l-22 -4 2 968 3 969 45 11 c47 12 174 46 530
139 118 32 222 59 230 60 8 2 119 32 245 65 127 34 237 64 245 65 8 2 60 16
115 31 55 15 174 46 265 69 91 24 226 60 300 80 74 20 144 38 155 40 11 3 106
28 210 55 105 28 197 53 205 55 8 2 42 11 75 20 107 28 369 97 385 101 8 2
238 62 510 134 272 72 554 146 625 165 72 18 283 74 470 124 187 49 410 108
495 130 242 63 409 108 610 161 102 27 237 62 300 79 63 17 167 44 230 61 63
17 126 33 140 36 14 2 39 9 55 14 17 5 75 21 130 35 55 15 132 35 170 45 101
27 291 77 435 114 l124 32 44 115 c24 63 48 123 53 134 11 25 41 105 323 840
26 66 51 129 56 140 5 11 57 146 116 300 58 154 112 294 119 310 7 17 25 61
40 99 l26 69 -17 64 c-10 37 -22 62 -28 60 -6 -3 -65 -18 -131 -35 -66 -17
-172 -45 -235 -62 -63 -17 -122 -33 -131 -35 -8 -2 -69 -17 -135 -35 -65 -17
-175 -46 -244 -64 -69 -19 -197 -52 -285 -75 -88 -24 -167 -44 -175 -46 -8 -2
-100 -27 -205 -55 -104 -28 -198 -53 -209 -55 -21 -5 -298 -78 -520 -137 -82
-22 -156 -41 -165 -43 -9 -2 -43 -11 -76 -20 -33 -9 -67 -18 -75 -20 -8 -2
-82 -22 -165 -44 -82 -21 -222 -58 -310 -81 -88 -23 -225 -59 -305 -80 -80
-21 -197 -52 -260 -69 -63 -16 -207 -54 -320 -84 -247 -65 -262 -69 -275 -72
-5 -2 -116 -31 -245 -65 -129 -34 -300 -80 -380 -100 -80 -21 -199 -53 -265
-70 -66 -18 -154 -41 -195 -51 -41 -11 -88 -24 -105 -29 -16 -5 -41 -11 -55
-14 -21 -4 -499 -130 -915 -241 -55 -14 -140 -37 -190 -50 -49 -13 -125 -33
-167 -45 -43 -11 -85 -23 -95 -25 -10 -2 -88 -22 -173 -45 -85 -23 -162 -43
-170 -45 -8 -2 -69 -18 -135 -35 -153 -41 -339 -89 -343 -90 -3 0 22 37 110
167 15 23 28 44 28 47 0 3 14 29 31 58 37 62 111 209 163 321 73 160 172 463
192 592 3 22 8 43 10 46 2 4 6 31 10 60 3 30 8 56 9 59 3 5 7 34 20 155 6 51
7 363 1 390 -2 11 -7 47 -11 81 -3 33 -12 81 -18 106 l-12 46 -180 -107z
m-11190 -14871 c-3 -5 -11 -10 -16 -10 -6 0 -7 5 -4 10 3 6 11 10 16 10 6 0 7
-4 4 -10z"/>
</g>
</svg>
